<svg xmlns="http://www.w3.org/2000/svg" viewBox="0 0 100 100" width="100" height="100">
  <g fill="#00d9ff">
    <circle cx="50" cy="50" r="20" opacity="0.45"></circle>
    <rect x="47" y="2" width="6" height="15"></rect>
    <rect x="47" y="2" width="6" height="15" transform="rotate(30 50 50)"></rect>
    <rect x="47" y="2" width="6" height="15" transform="rotate(60 50 50)"></rect>
    <rect x="47" y="2" width="6" height="15" transform="rotate(90 50 50)"></rect>
    <rect x="47" y="2" width="6" height="15" transform="rotate(120 50 50)"></rect>
    <rect x="47" y="2" width="6" height="15" transform="rotate(150 50 50)"></rect>
    <rect x="47" y="2" width="6" height="15" transform="rotate(180 50 50)"></rect>
    <rect x="47" y="2" width="6" height="15" transform="rotate(210 50 50)"></rect>
    <rect x="47" y="2" width="6" height="15" transform="rotate(240 50 50)"></rect>
    <rect x="47" y="2" width="6" height="15" transform="rotate(270 50 50)"></rect>
    <rect x="47" y="2" width="6" height="15" transform="rotate(300 50 50)"></rect>
    <rect x="47" y="2" width="6" height="15" transform="rotate(330 50 50)"></rect>
    <circle cx="50" cy="50" r="15" fill="#ffffff" opacity="0.2"></circle>
  </g>
</svg>